<mxfile host="65bd71144e">
    <diagram id="r9L5aQMnp61Is2LohD3_" name="Page-1">
        <mxGraphModel dx="1680" dy="867" grid="1" gridSize="10" guides="1" tooltips="1" connect="1" arrows="1" fold="1" page="1" pageScale="1" pageWidth="850" pageHeight="1100" math="0" shadow="0">
            <root>
                <mxCell id="0"/>
                <mxCell id="1" parent="0"/>
                <mxCell id="14" value="" style="group" vertex="1" connectable="0" parent="1">
                    <mxGeometry x="610" y="760" width="240" height="80" as="geometry"/>
                </mxCell>
                <mxCell id="15" value="" style="whiteSpace=wrap;html=1;aspect=fixed;" vertex="1" parent="14">
                    <mxGeometry width="80" height="80" as="geometry"/>
                </mxCell>
                <mxCell id="16" value="M" style="whiteSpace=wrap;html=1;aspect=fixed;" vertex="1" parent="14">
                    <mxGeometry x="80" width="80" height="80" as="geometry"/>
                </mxCell>
                <mxCell id="17" value="" style="edgeStyle=none;html=1;" edge="1" parent="14" source="15" target="16">
                    <mxGeometry relative="1" as="geometry"/>
                </mxCell>
                <mxCell id="18" value="^" style="whiteSpace=wrap;html=1;aspect=fixed;" vertex="1" parent="14">
                    <mxGeometry x="160" width="80" height="80" as="geometry"/>
                </mxCell>
                <mxCell id="19" value="" style="edgeStyle=none;html=1;" edge="1" parent="14" source="16" target="18">
                    <mxGeometry relative="1" as="geometry"/>
                </mxCell>
                <mxCell id="20" value="" style="group" vertex="1" connectable="0" parent="1">
                    <mxGeometry x="750" y="1180" width="240" height="80" as="geometry"/>
                </mxCell>
                <mxCell id="21" value="^" style="whiteSpace=wrap;html=1;aspect=fixed;" vertex="1" parent="20">
                    <mxGeometry width="80" height="80" as="geometry"/>
                </mxCell>
                <mxCell id="22" value="K" style="whiteSpace=wrap;html=1;aspect=fixed;" vertex="1" parent="20">
                    <mxGeometry x="80" width="80" height="80" as="geometry"/>
                </mxCell>
                <mxCell id="23" value="" style="edgeStyle=none;html=1;" edge="1" parent="20" source="21" target="22">
                    <mxGeometry relative="1" as="geometry"/>
                </mxCell>
                <mxCell id="24" value="" style="whiteSpace=wrap;html=1;aspect=fixed;" vertex="1" parent="20">
                    <mxGeometry x="160" width="80" height="80" as="geometry"/>
                </mxCell>
                <mxCell id="25" value="" style="edgeStyle=none;html=1;" edge="1" parent="20" source="22" target="24">
                    <mxGeometry relative="1" as="geometry"/>
                </mxCell>
                <mxCell id="26" value="" style="group" vertex="1" connectable="0" parent="1">
                    <mxGeometry x="440" y="1180" width="240" height="80" as="geometry"/>
                </mxCell>
                <mxCell id="27" value="^" style="whiteSpace=wrap;html=1;aspect=fixed;" vertex="1" parent="26">
                    <mxGeometry width="80" height="80" as="geometry"/>
                </mxCell>
                <mxCell id="28" value="H" style="whiteSpace=wrap;html=1;aspect=fixed;" vertex="1" parent="26">
                    <mxGeometry x="80" width="80" height="80" as="geometry"/>
                </mxCell>
                <mxCell id="29" value="" style="edgeStyle=none;html=1;" edge="1" parent="26" source="27" target="28">
                    <mxGeometry relative="1" as="geometry"/>
                </mxCell>
                <mxCell id="30" value="" style="whiteSpace=wrap;html=1;aspect=fixed;" vertex="1" parent="26">
                    <mxGeometry x="160" width="80" height="80" as="geometry"/>
                </mxCell>
                <mxCell id="31" value="" style="edgeStyle=none;html=1;" edge="1" parent="26" source="28" target="30">
                    <mxGeometry relative="1" as="geometry"/>
                </mxCell>
                <mxCell id="32" value="" style="group" vertex="1" connectable="0" parent="1">
                    <mxGeometry x="1050" y="1180" width="240" height="80" as="geometry"/>
                </mxCell>
                <mxCell id="33" value="^" style="whiteSpace=wrap;html=1;aspect=fixed;" vertex="1" parent="32">
                    <mxGeometry width="80" height="80" as="geometry"/>
                </mxCell>
                <mxCell id="34" value="G" style="whiteSpace=wrap;html=1;aspect=fixed;" vertex="1" parent="32">
                    <mxGeometry x="80" width="80" height="80" as="geometry"/>
                </mxCell>
                <mxCell id="35" value="" style="edgeStyle=none;html=1;" edge="1" parent="32" source="33" target="34">
                    <mxGeometry relative="1" as="geometry"/>
                </mxCell>
                <mxCell id="36" value="^" style="whiteSpace=wrap;html=1;aspect=fixed;" vertex="1" parent="32">
                    <mxGeometry x="160" width="80" height="80" as="geometry"/>
                </mxCell>
                <mxCell id="37" value="" style="edgeStyle=none;html=1;" edge="1" parent="32" source="34" target="36">
                    <mxGeometry relative="1" as="geometry"/>
                </mxCell>
                <mxCell id="44" value="" style="group" vertex="1" connectable="0" parent="1">
                    <mxGeometry x="110" y="950" width="240" height="80" as="geometry"/>
                </mxCell>
                <mxCell id="45" value="^" style="whiteSpace=wrap;html=1;aspect=fixed;" vertex="1" parent="44">
                    <mxGeometry width="80" height="80" as="geometry"/>
                </mxCell>
                <mxCell id="46" value="E" style="whiteSpace=wrap;html=1;aspect=fixed;" vertex="1" parent="44">
                    <mxGeometry x="80" width="80" height="80" as="geometry"/>
                </mxCell>
                <mxCell id="47" value="" style="edgeStyle=none;html=1;" edge="1" parent="44" source="45" target="46">
                    <mxGeometry relative="1" as="geometry"/>
                </mxCell>
                <mxCell id="48" value="^" style="whiteSpace=wrap;html=1;aspect=fixed;" vertex="1" parent="44">
                    <mxGeometry x="160" width="80" height="80" as="geometry"/>
                </mxCell>
                <mxCell id="49" value="" style="edgeStyle=none;html=1;" edge="1" parent="44" source="46" target="48">
                    <mxGeometry relative="1" as="geometry"/>
                </mxCell>
                <mxCell id="50" value="" style="group" vertex="1" connectable="0" parent="1">
                    <mxGeometry x="-180" y="950" width="240" height="80" as="geometry"/>
                </mxCell>
                <mxCell id="51" value="^" style="whiteSpace=wrap;html=1;aspect=fixed;" vertex="1" parent="50">
                    <mxGeometry width="80" height="80" as="geometry"/>
                </mxCell>
                <mxCell id="52" value="D" style="whiteSpace=wrap;html=1;aspect=fixed;" vertex="1" parent="50">
                    <mxGeometry x="80" width="80" height="80" as="geometry"/>
                </mxCell>
                <mxCell id="53" value="" style="edgeStyle=none;html=1;" edge="1" parent="50" source="51" target="52">
                    <mxGeometry relative="1" as="geometry"/>
                </mxCell>
                <mxCell id="54" value="" style="whiteSpace=wrap;html=1;aspect=fixed;" vertex="1" parent="50">
                    <mxGeometry x="160" width="80" height="80" as="geometry"/>
                </mxCell>
                <mxCell id="55" value="" style="edgeStyle=none;html=1;" edge="1" parent="50" source="52" target="54">
                    <mxGeometry relative="1" as="geometry"/>
                </mxCell>
                <mxCell id="56" value="" style="group" vertex="1" connectable="0" parent="1">
                    <mxGeometry x="320" y="760" width="240" height="80" as="geometry"/>
                </mxCell>
                <mxCell id="57" value="" style="whiteSpace=wrap;html=1;aspect=fixed;" vertex="1" parent="56">
                    <mxGeometry width="80" height="80" as="geometry"/>
                </mxCell>
                <mxCell id="58" value="C" style="whiteSpace=wrap;html=1;aspect=fixed;" vertex="1" parent="56">
                    <mxGeometry x="80" width="80" height="80" as="geometry"/>
                </mxCell>
                <mxCell id="59" value="" style="edgeStyle=none;html=1;" edge="1" parent="56" source="57" target="58">
                    <mxGeometry relative="1" as="geometry"/>
                </mxCell>
                <mxCell id="60" value="" style="whiteSpace=wrap;html=1;aspect=fixed;" vertex="1" parent="56">
                    <mxGeometry x="160" width="80" height="80" as="geometry"/>
                </mxCell>
                <mxCell id="61" value="" style="edgeStyle=none;html=1;" edge="1" parent="56" source="58" target="60">
                    <mxGeometry relative="1" as="geometry"/>
                </mxCell>
                <mxCell id="62" value="" style="group" vertex="1" connectable="0" parent="1">
                    <mxGeometry x="10" y="760" width="240" height="80" as="geometry"/>
                </mxCell>
                <mxCell id="63" value="" style="whiteSpace=wrap;html=1;aspect=fixed;" vertex="1" parent="62">
                    <mxGeometry width="80" height="80" as="geometry"/>
                </mxCell>
                <mxCell id="64" value="B" style="whiteSpace=wrap;html=1;aspect=fixed;" vertex="1" parent="62">
                    <mxGeometry x="80" width="80" height="80" as="geometry"/>
                </mxCell>
                <mxCell id="65" value="" style="edgeStyle=none;html=1;" edge="1" parent="62" source="63" target="64">
                    <mxGeometry relative="1" as="geometry"/>
                </mxCell>
                <mxCell id="66" value="" style="whiteSpace=wrap;html=1;aspect=fixed;" vertex="1" parent="62">
                    <mxGeometry x="160" width="80" height="80" as="geometry"/>
                </mxCell>
                <mxCell id="67" value="" style="edgeStyle=none;html=1;" edge="1" parent="62" source="64" target="66">
                    <mxGeometry relative="1" as="geometry"/>
                </mxCell>
                <mxCell id="68" value="" style="group" vertex="1" connectable="0" parent="1">
                    <mxGeometry x="90" y="540" width="240" height="80" as="geometry"/>
                </mxCell>
                <mxCell id="69" value="" style="whiteSpace=wrap;html=1;aspect=fixed;" vertex="1" parent="68">
                    <mxGeometry width="80" height="80" as="geometry"/>
                </mxCell>
                <mxCell id="70" value="A" style="whiteSpace=wrap;html=1;aspect=fixed;" vertex="1" parent="68">
                    <mxGeometry x="80" width="80" height="80" as="geometry"/>
                </mxCell>
                <mxCell id="71" value="" style="edgeStyle=none;html=1;" edge="1" parent="68" source="69" target="70">
                    <mxGeometry relative="1" as="geometry"/>
                </mxCell>
                <mxCell id="72" value="^" style="whiteSpace=wrap;html=1;aspect=fixed;" vertex="1" parent="68">
                    <mxGeometry x="160" width="80" height="80" as="geometry"/>
                </mxCell>
                <mxCell id="73" value="" style="edgeStyle=none;html=1;" edge="1" parent="68" source="70" target="72">
                    <mxGeometry relative="1" as="geometry"/>
                </mxCell>
                <mxCell id="75" style="edgeStyle=none;html=1;exitX=0.5;exitY=1;exitDx=0;exitDy=0;entryX=0.5;entryY=0;entryDx=0;entryDy=0;" edge="1" parent="1" source="69" target="63">
                    <mxGeometry relative="1" as="geometry"/>
                </mxCell>
                <mxCell id="77" style="edgeStyle=none;html=1;exitX=1;exitY=0.5;exitDx=0;exitDy=0;entryX=0;entryY=0.5;entryDx=0;entryDy=0;" edge="1" parent="1" source="66" target="57">
                    <mxGeometry relative="1" as="geometry">
                        <mxPoint x="320" y="800.1176470588236" as="targetPoint"/>
                    </mxGeometry>
                </mxCell>
                <mxCell id="78" style="edgeStyle=none;html=1;exitX=1;exitY=0.5;exitDx=0;exitDy=0;" edge="1" parent="1" source="60">
                    <mxGeometry relative="1" as="geometry">
                        <mxPoint x="609.9999999999998" y="800.1176470588236" as="targetPoint"/>
                    </mxGeometry>
                </mxCell>
                <mxCell id="79" style="edgeStyle=none;html=1;exitX=0.5;exitY=1;exitDx=0;exitDy=0;entryX=0.5;entryY=0;entryDx=0;entryDy=0;" edge="1" parent="1" source="63" target="51">
                    <mxGeometry relative="1" as="geometry">
                        <mxPoint x="-60" y="950.0000000000002" as="targetPoint"/>
                    </mxGeometry>
                </mxCell>
                <mxCell id="81" style="edgeStyle=none;html=1;exitX=0.5;exitY=1;exitDx=0;exitDy=0;entryX=0.5;entryY=0;entryDx=0;entryDy=0;" edge="1" parent="1" source="57" target="27">
                    <mxGeometry relative="1" as="geometry">
                        <mxPoint x="520" y="949.9999999999998" as="targetPoint"/>
                    </mxGeometry>
                </mxCell>
                <mxCell id="83" style="edgeStyle=none;html=1;exitX=0.5;exitY=1;exitDx=0;exitDy=0;entryX=0.5;entryY=0;entryDx=0;entryDy=0;" edge="1" parent="1" source="15" target="39">
                    <mxGeometry relative="1" as="geometry">
                        <mxPoint x="1090" y="950.0000000000002" as="targetPoint"/>
                    </mxGeometry>
                </mxCell>
                <mxCell id="85" value="" style="group" vertex="1" connectable="0" parent="1">
                    <mxGeometry x="870" y="970" width="510" height="80" as="geometry"/>
                </mxCell>
                <mxCell id="8" value="" style="group" vertex="1" connectable="0" parent="85">
                    <mxGeometry x="270" width="240" height="80" as="geometry"/>
                </mxCell>
                <mxCell id="9" value="^" style="whiteSpace=wrap;html=1;aspect=fixed;" vertex="1" parent="8">
                    <mxGeometry width="80" height="80" as="geometry"/>
                </mxCell>
                <mxCell id="10" value="N" style="whiteSpace=wrap;html=1;aspect=fixed;" vertex="1" parent="8">
                    <mxGeometry x="80" width="80" height="80" as="geometry"/>
                </mxCell>
                <mxCell id="11" value="" style="edgeStyle=none;html=1;" edge="1" parent="8" source="9" target="10">
                    <mxGeometry relative="1" as="geometry"/>
                </mxCell>
                <mxCell id="12" value="^" style="whiteSpace=wrap;html=1;aspect=fixed;" vertex="1" parent="8">
                    <mxGeometry x="160" width="80" height="80" as="geometry"/>
                </mxCell>
                <mxCell id="13" value="" style="edgeStyle=none;html=1;" edge="1" parent="8" source="10" target="12">
                    <mxGeometry relative="1" as="geometry"/>
                </mxCell>
                <mxCell id="38" value="" style="group" vertex="1" connectable="0" parent="85">
                    <mxGeometry width="240" height="80" as="geometry"/>
                </mxCell>
                <mxCell id="39" value="^" style="whiteSpace=wrap;html=1;aspect=fixed;" vertex="1" parent="38">
                    <mxGeometry width="80" height="80" as="geometry"/>
                </mxCell>
                <mxCell id="40" value="F" style="whiteSpace=wrap;html=1;aspect=fixed;" vertex="1" parent="38">
                    <mxGeometry x="80" width="80" height="80" as="geometry"/>
                </mxCell>
                <mxCell id="41" value="" style="edgeStyle=none;html=1;" edge="1" parent="38" source="39" target="40">
                    <mxGeometry relative="1" as="geometry"/>
                </mxCell>
                <mxCell id="42" value="" style="whiteSpace=wrap;html=1;aspect=fixed;" vertex="1" parent="38">
                    <mxGeometry x="160" width="80" height="80" as="geometry"/>
                </mxCell>
                <mxCell id="43" value="" style="edgeStyle=none;html=1;" edge="1" parent="38" source="40" target="42">
                    <mxGeometry relative="1" as="geometry"/>
                </mxCell>
                <mxCell id="84" style="edgeStyle=none;html=1;exitX=1;exitY=0.5;exitDx=0;exitDy=0;" edge="1" parent="85" source="42">
                    <mxGeometry relative="1" as="geometry">
                        <mxPoint x="270" y="39.66666666666674" as="targetPoint"/>
                    </mxGeometry>
                </mxCell>
                <mxCell id="86" style="edgeStyle=none;html=1;exitX=1;exitY=0.5;exitDx=0;exitDy=0;" edge="1" parent="1" source="54">
                    <mxGeometry relative="1" as="geometry">
                        <mxPoint x="110" y="989.6666666666667" as="targetPoint"/>
                    </mxGeometry>
                </mxCell>
                <mxCell id="87" style="edgeStyle=none;html=1;exitX=1;exitY=0.5;exitDx=0;exitDy=0;entryX=0;entryY=0.5;entryDx=0;entryDy=0;" edge="1" parent="1" source="30" target="21">
                    <mxGeometry relative="1" as="geometry"/>
                </mxCell>
                <mxCell id="88" style="edgeStyle=none;html=1;exitX=1;exitY=0.5;exitDx=0;exitDy=0;entryX=0;entryY=0.5;entryDx=0;entryDy=0;" edge="1" parent="1" source="24" target="33">
                    <mxGeometry relative="1" as="geometry">
                        <mxPoint x="1040" y="1219.666666666667" as="targetPoint"/>
                    </mxGeometry>
                </mxCell>
            </root>
        </mxGraphModel>
    </diagram>
</mxfile>